<svg xmlns="http://www.w3.org/2000/svg" xmlns:xlink="http://www.w3.org/1999/xlink" version="1.1" x="0px" y="0px" viewBox="0 0 60 60" enable-background="new 0 0 60 60" xml:space="preserve" width="85" height="85" class="text-page__heading-icon"><rect x="-580.0126953" y="-104.6329346" display="none" fill="#000000" width="832.911377" height="826.0680542"></rect><g><path d="M22.154377,28.7809048c2.0156612,0,3.6548862-1.6397057,3.6548862-3.6553669s-1.639225-3.6553669-3.6548862-3.6553669   s-3.6548882,1.6397057-3.6548882,3.6553669S20.1387138,28.7809048,22.154377,28.7809048z M22.154377,22.4535141   c1.473093,0,2.6715431,1.1984501,2.6715431,2.6720238s-1.1984501,2.6720238-2.6715431,2.6720238   c-1.4730949,0-2.671545-1.1984501-2.671545-2.6720238S20.681282,22.4535141,22.154377,22.4535141z"></path><path d="M34.2598686,23.7225456c-0.5454483-0.8013668-1.8648949-0.8028069-2.4122639-0.0004807L21.509058,38.8707352   l-3.7480354-5.1409454c-0.5483303-0.7600746-1.7976751-0.7629547-2.355607-0.0019188l-8.3190441,11.412159   c-0.3245802,0.4450951-0.3706746,1.0265541-0.1219578,1.5172653c0.2506371,0.4916725,0.7480707,0.7970467,1.2992806,0.7970467   h39.4345551c0.5425682,0,1.0361595-0.298172,1.2877579-0.7778397c0.2525597-0.4782257,0.2179871-1.0529633-0.0873871-1.4975815   L34.2598686,23.7225456z M48.1159821,46.2189217c-0.0825882,0.1579666-0.2391167,0.252079-0.4177322,0.252079H8.2636938   c-0.1814957,0-0.3399448-0.0969925-0.4225302-0.2592812c-0.0393724-0.0777855-0.1142755-0.2808876,0.0403323-0.4926338   l8.3180847-11.4111977c0.0902672-0.1229172,0.2304707-0.1939774,0.3850784-0.1939774   c0.1536465,0,0.2919292,0.0696182,0.3802776,0.1930199l4.1600018,5.7060776   c0.0950699,0.1296387,0.2650414,0.2079048,0.4052448,0.2021408c0.1594086-0.0023994,0.3082542-0.0825844,0.3985233-0.2146263   l10.731308-15.7243671c0.1834183-0.2684021,0.6049881-0.2674427,0.7874413,0l14.6397133,21.4582958   C48.2321777,45.9457169,48.156311,46.1435394,48.1159821,46.2189217z"></path><path d="M59.4589958,14.0019484c-0.1075516-1.07265-0.4244499-2.0948858-0.9410896-3.0340548   c-0.5147171-0.9631777-1.2176552-1.8039169-2.0867233-2.4977303c-1.2262955-0.9871845-2.6926689-1.5883298-4.2387466-1.738616   c-2.6110458-0.2612009-5.1385422,0.7317452-6.8632355,2.6355324c-0.7064171,0.77952-1.2333183,1.6670742-1.588089,2.6172867   H3.2672734c-1.5259105,0-2.7675734,1.241663-2.7675734,2.7675734v35.8099213c0,0.7351074,0.2861682,1.42556,0.8066487,1.9450798   c0.5185598,0.517601,1.207092,0.8028069,1.9388378,0.8028069c0.0019205,0,0.0038412,0,0.0048015,0h49.4600487   c1.5163078,0,2.7502861-1.2339783,2.7502861-2.7502861v-28.70187   C58.1461525,20.2913475,59.7830963,17.2639542,59.4589958,14.0019484z M54.4769821,50.5594597   c0,0.9742203-0.792244,1.7669449-1.7669449,1.7669449h-49.46101c-0.0009604,0-0.0019207,0-0.0028808,0   c-0.4695849,0-0.9122813-0.1829376-1.2455041-0.5156784c-0.3332226-0.3332253-0.5175996-0.7768822-0.5175996-1.248867V14.7519398   c0-0.9838228,0.7999268-1.7842302,1.7842302-1.7842302h40.1727257c-0.2011833,0.8655872-0.2658806,1.7702456-0.1744728,2.6921902   c0.3725929,3.745635,3.3523941,6.7921743,7.1061897,7.2468748c0.0595398,0.0081615,0.1161957,0.0158443,0.1642113,0.0192051   c0.2813644,0.0278492,0.5598526,0.0412922,0.8354568,0.0412922c0.5742569,0,1.1456337-0.0600185,1.6958847-0.1776543   c0.4904709-0.1044922,0.9607735-0.253458,1.4097137-0.4386749V50.5594597z M52.861763,21.8278809   c-0.7173424,0.1536484-1.437561,0.1973419-2.2422905,0.118597l-0.1517258-0.0192051   c-3.2784538-0.3966026-5.8962212-3.0734291-6.2236786-6.3648434c-0.2035828-2.0535927,0.440773-4.0193186,1.8139992-5.5351458   c1.3540154-1.4956617,3.2880516-2.3536859,5.3056335-2.3536859c0.2419968,0,0.4859085,0.0120034,0.732708,0.0364909   c1.355938,0.132041,2.6417732,0.6597233,3.7201843,1.5273514c0.765358,0.611228,1.3828278,1.3496962,1.8370476,2.1990776   c0.4542198,0.8272953,0.7327042,1.7232513,0.8268166,2.6629009C58.8424873,17.7461433,56.4273415,21.0682869,52.861763,21.8278809z   "></path><path d="M54.849575,14.3370924h-2.9961243v-2.9961243c0-0.2717638-0.2199059-0.4916716-0.4916687-0.4916716   c-0.2717667,0-0.4916725,0.2199078-0.4916725,0.4916716v2.9961243h-2.9961243   c-0.2717628,0-0.4916725,0.2199078-0.4916725,0.4916716s0.2199097,0.4916716,0.4916725,0.4916716h2.9961243v2.996604   c0,0.2717628,0.2199059,0.4916706,0.4916725,0.4916706c0.2717628,0,0.4916687-0.2199078,0.4916687-0.4916706v-2.996604h2.9961243   c0.2717667,0,0.4916725-0.2199078,0.4916725-0.4916716S55.1213417,14.3370924,54.849575,14.3370924z"></path></g></svg>