<svg xmlns="http://www.w3.org/2000/svg" version="1.1" x="0px" y="0px" height="100" width="100" class="text-page__heading-icon" viewBox="0 0 100 100"><g transform="translate(0,-952.36218)"><path d="M 37.8125 14 A 1.0001 1.0001 0 0 0 37.09375 14.53125 L 31.375 26 L 18 26 C 11.923299 26 7 30.9233 7 37 L 7 75 C 7 81.0767 11.923299 86 18 86 L 82 86 C 88.076701 86 93 81.0767 93 75 L 93 37 C 93 30.9233 88.076701 26 82 26 L 68.625 26 L 62.90625 14.53125 A 1.0001 1.0001 0 0 0 62 14 L 38 14 A 1.0001 1.0001 0 0 0 37.8125 14 z M 38.625 16 L 61.375 16 L 67.09375 27.4375 A 1.0001 1.0001 0 0 0 68 28 L 82 28 C 87.003295 28 91 31.9967 91 37 L 91 75 C 91 80.0033 87.003295 84 82 84 L 18 84 C 12.996705 84 9 80.0033 9 75 L 9 37 C 9 31.9967 12.996705 28 18 28 L 32 28 A 1.0001 1.0001 0 0 0 32.90625 27.4375 L 38.625 16 z M 50 35 C 38.413861 35 29 44.4139 29 56 C 29 67.5862 38.413861 77 50 77 C 61.586138 77 71 67.5862 71 56 C 71 44.4139 61.586138 35 50 35 z M 50 37 C 60.505253 37 69 45.49479 69 56 C 69 66.5053 60.505253 75 50 75 C 39.494746 75 31 66.5053 31 56 C 31 45.49479 39.494746 37 50 37 z M 49.8125 43 A 1.0001001 1.0001001 0 0 0 50 45 C 56.086975 45 61 49.9131 61 56 A 1.0001001 1.0001001 0 0 0 61.96875 57.03125 A 1.0001001 1.0001001 0 0 0 63 56 C 63 48.8322 57.167855 43 50 43 A 1.0001001 1.0001001 0 0 0 49.8125 43 z " transform="translate(0,952.36218)" fill="#000000" fill-opacity="1" stroke="none" marker="none" visibility="visible" display="inline" overflow="visible"></path></g></svg>