<svg xmlns="http://www.w3.org/2000/svg" xmlns:xlink="http://www.w3.org/1999/xlink" width="100" height="100" class="text-page__heading-icon" version="1.1" x="0px" y="0px" viewBox="0 0 60 60" enable-background="new 0 0 60 60" xml:space="preserve"><rect x="-250" y="-331" display="none" fill="#000000" width="802" height="805"></rect><path d="M44.4287109,10.5981445c-0.3959961,0-0.7602539,0.1870117-0.9995117,0.5131836  c-1.9423828,2.6494141-5.9624023,5.8076172-14.081543,5.8076172H11.4931641c-4.1079102,0-7.5332031,2.9575806-8.2715454,6.8540039  H2.8842773C1.5698242,23.7729492,0.5,24.8427734,0.5,26.1572266v2.9624023c0,1.3144531,1.0698242,2.3842773,2.3842773,2.3842773  h0.3372803c0.7263794,3.8344116,4.0567017,6.7519531,8.0774536,6.8441772  c0.0596924,0.0251465,0.1252441,0.0391235,0.1941528,0.0391235h4.7592163l3.1333618,9.8007812  c0.2319336,0.7260742,0.9003906,1.2138672,1.6625977,1.2138672h4.8774414c0.5634766,0,1.0771484-0.2612305,1.409668-0.7163086  s0.4248047-1.0239258,0.2529297-1.5610352L24.795105,38.387207h4.5525513c8.1196289,0,12.1391602,3.1586914,14.081543,5.8085938  c0.2392578,0.3256836,0.6035156,0.5126953,0.9995117,0.5126953c0.6923828,0,1.234375-0.5410156,1.234375-1.230957V11.8286133  C45.6630859,11.1386719,45.1210938,10.5981445,44.4287109,10.5981445z M2.8842773,30.5039062  C2.1210938,30.5039062,1.5,29.8828125,1.5,29.1196289v-2.9624023c0-0.7631836,0.6210938-1.3842773,1.3842773-1.3842773h0.2139282  c-0.0127563,0.1893311-0.0288696,0.3778076-0.0288696,0.5703125v4.5908203c0,0.1923218,0.0161133,0.3806763,0.0288696,0.5698242  H2.8842773z M4.0693359,29.934082v-4.5908203c0-3.9257812,3.0625-7.1499023,6.9238281-7.4077148v19.4057617  C7.1318359,37.0834961,4.0693359,33.8598633,4.0693359,29.934082z M26.527832,48.0957031  c-0.1420898,0.1948242-0.3613281,0.3061523-0.6020508,0.3061523h-4.8774414c-0.3256836,0-0.6113281-0.2084961-0.7104492-0.5185547  l-0.3004761-0.9399414h6.4434814l0.1553345,0.4858398C26.7094727,47.6582031,26.6699219,47.9013672,26.527832,48.0957031z   M26.1611938,45.9433594h-6.4435425l-2.4157104-7.5561523h6.4436035L26.1611938,45.9433594z M44.6630859,43.4775391  c0,0.1826172-0.1533203,0.230957-0.234375,0.230957c-0.0771484,0-0.1420898-0.0351562-0.1928711-0.1040039  c-2.0791016-2.8364258-6.3496094-6.2172852-14.8881836-6.2172852H11.9931641V17.9189453h17.3544922  c8.5380859,0,12.809082-3.3803711,14.8881836-6.2163086c0.0507812-0.0693359,0.1157227-0.1044922,0.1928711-0.1044922  c0.0810547,0,0.234375,0.0483398,0.234375,0.2304688V43.4775391z"></path><path d="M41.6474609,17.0058594c-3.0073242,2.0507812-6.8769531,3.0478516-11.8300781,3.0478516H18.434082  c-0.2758789,0-0.5,0.2236328-0.5,0.5s0.2241211,0.5,0.5,0.5h11.3833008c5.1611328,0,9.2148438-1.0537109,12.3935547-3.2216797  c0.2280273-0.1557617,0.2871094-0.4667969,0.1313477-0.6948242C42.1870117,16.9091797,41.8764648,16.8520508,41.6474609,17.0058594z  "></path><path d="M49.3510742,19.3168945c-0.1948242,0.1953125-0.1948242,0.512207,0.0009766,0.7070312  c1.9960938,1.9902344,3.0952148,4.6401367,3.0952148,7.4619141s-1.0991211,5.4716797-3.0952148,7.4614258  c-0.1953125,0.1948242-0.1958008,0.5112305-0.0009766,0.7070312c0.0976562,0.0981445,0.2255859,0.1469727,0.3540039,0.1469727  c0.1279297,0,0.2553711-0.0488281,0.3530273-0.1459961c2.1855469-2.1787109,3.3891602-5.0800781,3.3891602-8.1694336  s-1.2036133-5.9907227-3.3891602-8.1699219C49.862793,19.1220703,49.5463867,19.1210938,49.3510742,19.3168945z"></path><path d="M53.6352539,15.0356445c-0.1953125,0.1953125-0.1953125,0.5117188,0,0.7070312  C56.7724609,18.8803711,58.5,23.0493164,58.5,27.4824219c0,4.4375-1.7275391,8.6088867-4.8647461,11.7460938  c-0.1953125,0.1953125-0.1953125,0.5117188,0,0.7070312c0.0976562,0.0976562,0.2255859,0.1464844,0.3535156,0.1464844  s0.2558594-0.0488281,0.3535156-0.1464844C57.668457,36.609375,59.5,32.1870117,59.5,27.4824219  c0-4.699707-1.831543-9.1201172-5.1577148-12.4467773C54.1469727,14.840332,53.8305664,14.840332,53.6352539,15.0356445z"></path></svg>