<svg xmlns="http://www.w3.org/2000/svg" height="110" width="110" class="text-page__heading-icon" xmlns:xlink="http://www.w3.org/1999/xlink" version="1.1" x="0px" y="0px" viewBox="0 0 60 60" enable-background="new 0 0 60 60" xml:space="preserve"><g><g><path d="M34.8425293,35.5338745c-0.7490234-0.1496582-1.2929688-0.6365967-1.4561768-1.3078613    c-0.0623779-0.2486572-0.0892334-1.0273438-0.1094971-1.7475586c1.4169922-1.1726055,2.6047363-2.8635235,3.3076172-4.7092266    c0.6136475-0.1958008,1.1379395-0.9765625,1.3295898-2.0356445c0.1784668-1.0860596-0.0692139-2.0012207-0.600708-2.3824463    c0.0042725-2.3583984-0.0206299-4.574585-0.894043-6.2119141c-1.0269775-1.9243164-3.0550537-2.8231201-6.4561768-2.8289795    c-3.3273926,0.0058594-5.3554688,0.9046631-6.3824463,2.8289795c-0.8670654,1.6257324-0.8983154,3.822876-0.8934326,6.2119141    c-0.5319824,0.3812256-0.7797852,1.2972412-0.6002197,2.3900146c0.1905518,1.0524902,0.7149658,1.8322754,1.3284912,2.0280762    c0.7028809,1.8457031,1.8907471,3.5366211,3.3076172,4.7092266c-0.0197754,0.704834-0.0466309,1.4970703-0.1103516,1.7514648    c-0.1623535,0.6673584-0.7062988,1.1542969-1.4558105,1.3039551c-2.7145996,0.5473633-6.6013184,3.3225098-8.8483887,6.3186035    c-0.697998,0.9294434-0.8544922,2.2402344-0.3811035,3.1879883c0.3969727,0.795166,1.1713867,1.2330322,2.1796875,1.2330322    h23.7856445c1.0083008,0,1.7827148-0.4378662,2.1796875-1.2330322c0.4735107-0.9477539,0.3168945-2.2585449-0.3811035-3.1879883    C41.4443359,38.8563843,37.5577393,36.0812378,34.8425293,35.5338745z M43.1929932,44.600769    c-0.2285156,0.4580078-0.6658936,0.6894531-1.3001709,0.6894531H18.1071777c-0.6342773,0-1.0715332-0.2314453-1.3001709-0.6894531    c-0.3033447-0.6069336-0.1795654-1.5355225,0.2880859-2.1586914c2.0856934-2.7800293,5.7894287-5.4465332,8.2553711-5.9440918    c1.1168213-0.2226562,1.9666748-1.003418,2.2166748-2.0318604c0.0893555-0.3553467,0.1152344-1.0927734,0.1459961-2.2047119    c0.0043945-0.1555176-0.0656738-0.3044415-0.1887207-0.4003887c-1.411499-1.1033936-2.6396484-2.8605957-3.2849121-4.7004395    c-0.0697021-0.1998291-0.2559814-0.3294678-0.4624023-0.3294678c-0.0192871,0-0.0384521,0.0009766-0.0581055,0.0037842    c-0.1057129-0.0046387-0.5056152-0.3935547-0.6630859-1.2607422c-0.1497803-0.9141846,0.1271973-1.4125977,0.2131348-1.4289551    c0.2333984-0.0432129,0.4023438-0.3033447,0.4018555-0.5405273c-0.0061035-2.4274902-0.0109863-4.5238037,0.7773438-6.001709    c0.5272217-0.9880371,1.6728516-2.3026123,5.586792-2.3093262c3.8438721,0.0067139,4.989502,1.3212891,5.5167236,2.3093262    c0.7883301,1.4779053,0.7835693,3.5742188,0.7773438,6.0583496c-0.0004883,0.2371826,0.168457,0.4406738,0.4018555,0.4838867    c0.0859375,0.0163574,0.3630371,0.5147705,0.2141113,1.4212646c-0.1584473,0.8748779-0.5583496,1.2637939-0.6625977,1.2684326    c-0.2265625-0.0383301-0.4455566,0.107666-0.5218506,0.3256836c-0.6453857,1.8398438-1.8734131,3.5970459-3.2850342,4.7004395    c-0.1229248,0.0959473-0.1921387,0.2727032-0.1877441,0.4291973c0.0297852,1.0831299,0.0556641,1.8205566,0.144043,2.1721191    c0.2510986,1.0322266,1.1008301,1.8129883,2.2172852,2.0356445c2.4663086,0.4975586,6.1700439,3.1640625,8.2557373,5.9440918    C43.3725586,43.0652466,43.49646,43.9938354,43.1929932,44.600769z"></path><path d="M58.925415,37.4419556c-1.9407959-2.5869141-5.3016357-4.9857178-7.6518555-5.4600811    c-0.6179199-0.1237793-1.0662842-0.5241699-1.1998291-1.0744629c-0.0499268-0.199707-0.0739746-0.8564453-0.0913086-1.454834    c1.2075195-1.0083008,2.2207031-2.449585,2.8266602-4.0234375c0.5405273-0.1872559,0.9899902-0.8583984,1.1599121-1.798584    c0.1550293-0.94104-0.0571289-1.7380371-0.5161133-2.0932617c0.0043945-2.024292-0.0216064-3.9255371-0.7763672-5.3400879    c-0.8969727-1.6804199-2.6604004-2.4659424-5.6136475-2.4707031c-2.8898926,0.0047607-4.6534424,0.7902832-5.550293,2.4707031    c-0.7495117,1.4049072-0.7801514,3.2897949-0.7763672,5.3400879c-0.4591064,0.3552246-0.6707764,1.1541748-0.5152588,2.1009521    c0.1690674,0.9344482,0.6184082,1.6046143,1.1590576,1.7908936c0.6054688,1.572998,1.6185303,3.0151367,2.8265381,4.0234375    c-0.0163574,0.5695801-0.0397949,1.2512207-0.0921631,1.4587402c-0.1324463,0.5463867-0.5809326,0.9467773-1.1988525,1.0705566    c-1.2724609,0.2564678-2.8391113,1.0573711-4.411377,2.2557354c-0.2156982,0.1641846-0.2574463,0.4724121-0.0932617,0.6884766    c0.1647949,0.217041,0.4724121,0.2592773,0.6894531,0.0931396c1.4350586-1.0927734,2.8967285-1.8483887,4.0090332-2.0732422    c0.987793-0.1987305,1.7386475-0.8891602,1.9594727-1.7985821c0.0778809-0.3100586,0.0993652-0.9093018,0.1276855-1.9108887    c0.0043945-0.1555176-0.0656738-0.3043213-0.1887207-0.4003906c-1.2045898-0.9418945-2.2521973-2.4418945-2.8029785-4.0119629    c-0.0767822-0.2189941-0.28125-0.3457031-0.5012207-0.3254395c-0.1013184-0.027832-0.3936768-0.3659668-0.5136719-1.0275879    c-0.1104736-0.6730957,0.059082-1.0993652,0.1276855-1.1494141c0.2338867-0.0432129,0.402832-0.2946777,0.4023438-0.5319824    c-0.0053711-2.0788574-0.0100098-3.8736572,0.6601562-5.1296387c0.4455566-0.8344727,1.4154053-1.9445801,4.7441406-1.9503174    c3.2692871,0.0057373,4.2390137,1.1158447,4.6845703,1.9503174c0.6704102,1.2559814,0.6655273,3.0507812,0.6602783,5.1777344    c-0.0004883,0.2370605,0.1512451,0.4349365,0.3851318,0.4781494c0.0859375,0.0557861,0.2553711,0.4820557,0.145874,1.147583    c-0.1209717,0.6691895-0.4134521,1.0073242-0.4935303,1.0351562c-0.2290039-0.0297852-0.4460449,0.1064453-0.5224609,0.3244629    c-0.5511475,1.5710449-1.598877,3.0710449-2.8029785,4.0129395c-0.1229248,0.0960693-0.1915283,0.2977295-0.1872559,0.4532471    c0.0268555,0.9487305,0.048584,1.5479736,0.1253662,1.8543701c0.2218018,0.913084,0.9727783,1.6035137,1.9598389,1.8022442    c2.1082764,0.4255371,5.2751465,2.7070312,7.0598145,5.0855713c0.3879395,0.5175781,0.4912109,1.28479,0.2409668,1.7861328    c-0.1838379,0.3677979-0.5395508,0.5540771-1.0566406,0.5540771H46.3776855c-0.2717285,0-0.4916992,0.2198486-0.4916992,0.4916992    c0,0.2717285,0.2199707,0.4915771,0.4916992,0.4915771h10.9455566c0.8944092,0,1.5820312-0.3898926,1.935791-1.0975342    C59.6777344,39.420105,59.5408936,38.2620239,58.925415,37.4419556z"></path><path d="M20.8996582,35.0192261c0.217041,0.1661377,0.524292,0.1239014,0.6894531-0.0931396    c0.1641846-0.2160645,0.1224365-0.524292-0.0931396-0.6884766c-1.5723877-1.1983643-3.1390381-1.9992676-4.411499-2.2557354    c-0.6179199-0.1237793-1.0662842-0.5241699-1.199707-1.0744629c-0.0500488-0.199707-0.0739746-0.8564453-0.0913086-1.454834    c1.2080078-1.0083008,2.2210693-2.4504395,2.8265381-4.0234375c0.5406494-0.1872559,0.9901123-0.8583984,1.1600342-1.798584    c0.1550293-0.94104-0.0571289-1.7380371-0.5161133-2.0932617c0.0042725-2.024292-0.0217285-3.9255371-0.7763672-5.3400879    c-0.8969727-1.6804199-2.6604004-2.4659424-5.6137695-2.4707031c-2.8898926,0.0047607-4.6533203,0.7902832-5.550293,2.4707031    c-0.7495117,1.4049072-0.7801514,3.2897949-0.7763672,5.3400879c-0.4589844,0.3552246-0.6706543,1.1541748-0.5151367,2.1009521    c0.1689453,0.9344482,0.6184082,1.6046143,1.1589355,1.7908936c0.605957,1.5738525,1.6191406,3.0151367,2.8266602,4.0234375    c-0.0163574,0.5695801-0.039917,1.2512207-0.0922852,1.4587402c-0.1324463,0.5463867-0.5809326,0.9467773-1.1993408,1.0705566    c-2.3497314,0.4743633-5.7105713,2.873167-7.6512451,5.4600811c-0.6156006,0.8200684-0.7524414,1.9781494-0.3337402,2.8155518    c0.3537598,0.7076416,1.0413818,1.0975342,1.935791,1.0975342h10.9455566c0.2717285,0,0.4916992-0.2198486,0.4916992-0.4915771    c0-0.2718506-0.2199707-0.4916992-0.4916992-0.4916992H2.6767578c-0.5170898,0-0.8728027-0.1862793-1.0566406-0.5540771    c-0.2502441-0.5013428-0.1469727-1.2685547,0.2409668-1.7861328c1.784668-2.37854,4.9516602-4.6600342,7.0593262-5.0855713    c0.9876709-0.1987305,1.7385254-0.8891602,1.9594727-1.7985821c0.0777588-0.3100586,0.0993652-0.9093018,0.1276855-1.9108887    c0.0043945-0.1555176-0.0657959-0.3043213-0.1887207-0.4003906c-1.2041016-0.9418945-2.251709-2.4418945-2.8029785-4.0129395    c-0.0769043-0.2180176-0.2808838-0.3447266-0.5012207-0.3244629c-0.1013184-0.027832-0.3937988-0.3659668-0.5137939-1.0275879    c-0.1104736-0.6730957,0.059082-1.0993652,0.1278076-1.1494141c0.2337646-0.0432129,0.402832-0.2946777,0.4023438-0.5319824    c-0.0053711-2.0788574-0.0101318-3.8736572,0.6601562-5.1296387c0.4455566-0.8344727,1.4152832-1.9445801,4.7441406-1.9503174    c3.269165,0.0057373,4.2390137,1.1158447,4.6845703,1.9503174c0.6702881,1.2559814,0.6655273,3.0507812,0.6601562,5.1777344    c-0.0004883,0.2370605,0.1513672,0.4349365,0.3850098,0.4781494c0.0860596,0.0557861,0.2554932,0.4820557,0.1459961,1.147583    c-0.1208496,0.6691895-0.4133301,1.0073242-0.4935303,1.0351562c-0.2261963-0.0297852-0.4460449,0.1074219-0.5223389,0.3254395    c-0.5507812,1.5700684-1.5983887,3.0700684-2.8029785,4.0119629c-0.1230469,0.0960693-0.1916504,0.2977295-0.1872559,0.4532471    c0.0268555,0.9487305,0.0484619,1.5479736,0.1252441,1.8543701c0.2219238,0.913084,0.9727783,1.6035137,1.9604492,1.8022442    C18.0030518,33.1708374,19.4645996,33.9264526,20.8996582,35.0192261z"></path></g></g></svg>